<?xml version="1.0" standalone="yes"?>

<svg version="1.1" viewBox="0.0 0.0 960.0 720.0" fill="none" stroke="none" stroke-linecap="square" stroke-miterlimit="10" xmlns="http://www.w3.org/2000/svg" xmlns:xlink="http://www.w3.org/1999/xlink"><clipPath id="p.0"><path d="m0 0l960.0 0l0 720.0l-960.0 0l0 -720.0z" clip-rule="nonzero"></path></clipPath><g clip-path="url(#p.0)"><path fill="#000000" fill-opacity="0.0" d="m0 0l960.0 0l0 720.0l-960.0 0z" fill-rule="nonzero"></path><path fill="#990000" d="m183.08923 380.7349l11.275589 0l0 11.275604l-11.275589 0z" fill-rule="nonzero"></path><path stroke="#000000" stroke-width="1.0" stroke-linejoin="round" stroke-linecap="butt" d="m183.08923 380.7349l11.275589 0l0 11.275604l-11.275589 0z" fill-rule="nonzero"></path><path fill="#cfe2f3" d="m483.1181 118.17585l0 230.29398l346.7638 224.11813l2.6483154 -339.70605z" fill-rule="nonzero"></path><path stroke="#000000" stroke-width="1.0" stroke-linejoin="round" stroke-linecap="butt" d="m483.1181 118.17585l0 230.29398l346.7638 224.11813l2.6483154 -339.70605z" fill-rule="nonzero"></path><path fill="#000000" fill-opacity="0.0" d="m194.36482 386.3727l638.5827 -152.53545" fill-rule="nonzero"></path><path stroke="#cc0000" stroke-width="1.0" stroke-linejoin="round" stroke-linecap="butt" stroke-dasharray="4.0,3.0" d="m194.36482 386.3727l638.5827 -152.53545" fill-rule="nonzero"></path><path fill="#000000" fill-opacity="0.0" d="m414.05774 74.0l530.2992 157.95276" fill-rule="nonzero"></path><path stroke="#000000" stroke-width="1.0" stroke-linejoin="round" stroke-linecap="butt" d="m414.05774 74.0l530.2992 157.95276" fill-rule="nonzero"></path><path fill="#cfe2f3" d="m177.50919 402.2047l-2.9055176 0l0 122.55908l2.9055176 0z" fill-rule="nonzero"></path><path fill="#a5b4c2" d="m174.60367 402.2047l-0.9684906 -0.96850586l0 122.55908l0.9684906 0.96850586z" fill-rule="nonzero"></path><path fill="#d8e7f5" d="m177.50919 402.2047l-0.96850586 -0.96850586l-2.9055023 0l0.9684906 0.96850586z" fill-rule="nonzero"></path><path fill="#000000" fill-opacity="0.0" d="m177.50919 402.2047l-0.96850586 -0.96850586l-2.9055023 0l0 122.55908l0.9684906 0.96850586l2.9055176 0zm0 0l-2.9055176 0l-0.9684906 -0.96850586m0.9684906 0.96850586l0 122.55908" fill-rule="nonzero"></path><path stroke="#000000" stroke-width="1.0" stroke-linejoin="round" stroke-linecap="butt" d="m177.50919 402.2047l-0.96850586 -0.96850586l-2.9055023 0l0 122.55908l0.9684906 0.96850586l2.9055176 0zm0 0l-2.9055176 0l-0.9684906 -0.96850586m0.9684906 0.96850586l0 122.55908" fill-rule="nonzero"></path><path fill="#000000" fill-opacity="0.0" d="m423.1181 324.6483l509.13385 369.70078" fill-rule="nonzero"></path><path stroke="#000000" stroke-width="1.0" stroke-linejoin="round" stroke-linecap="butt" d="m423.1181 324.6483l509.13385 369.70078" fill-rule="nonzero"></path><path fill="#00ff00" d="m92.23622 134.05774l69.70604 0.8845215l0.8818817 29.115479l-70.58792 -1.7637787z" fill-rule="nonzero"></path><path stroke="#000000" stroke-width="1.0" stroke-linejoin="round" stroke-linecap="butt" d="m92.23622 134.05774l69.70604 0.8845215l0.8818817 29.115479l-70.58792 -1.7637787z" fill-rule="nonzero"></path><path fill="#000000" fill-opacity="0.0" d="m161.05774 138.46982l323.81104 -21.165352" fill-rule="nonzero"></path><path stroke="#00ff00" stroke-width="1.0" stroke-linejoin="round" stroke-linecap="butt" stroke-dasharray="4.0,3.0" d="m161.05774 138.46982l323.81104 -21.165352" fill-rule="nonzero"></path><path fill="#000000" fill-opacity="0.0" d="m165.46982 160.53018l660.88184 75.87402" fill-rule="nonzero"></path><path stroke="#00ff00" stroke-width="1.0" stroke-linejoin="round" stroke-linecap="butt" stroke-dasharray="4.0,3.0" d="m165.46982 160.53018l660.88184 75.87402" fill-rule="nonzero"></path><path fill="#000000" fill-opacity="0.0" d="m161.05774 161.41208l313.22833 176.47244" fill-rule="nonzero"></path><path stroke="#00ff00" stroke-width="1.0" stroke-linejoin="round" stroke-linecap="butt" stroke-dasharray="4.0,3.0" d="m161.05774 161.41208l313.22833 176.47244" fill-rule="nonzero"></path><path fill="#000000" fill-opacity="0.0" d="m168.17586 163.17586l660.9449 409.13385" fill-rule="nonzero"></path><path stroke="#00ff00" stroke-width="1.0" stroke-linejoin="round" stroke-linecap="butt" stroke-dasharray="4.0,3.0" d="m168.17586 163.17586l660.9449 409.13385" fill-rule="nonzero"></path><path fill="#000000" fill-opacity="0.0" d="m92.23622 104.49869l116.06299 0l0 41.921265l-116.06299 0z" fill-rule="nonzero"></path><path fill="#000000" d="m102.29872 132.04619l0 -11.484375l1.28125 0l0 1.078125q0.453125 -0.640625 1.015625 -0.953125q0.578125 -0.3125 1.390625 -0.3125q1.0625 0 1.875 0.546875q0.8125 0.546875 1.21875 1.546875q0.421875 0.984375 0.421875 2.171875q0 1.28125 -0.46875 2.296875q-0.453125 1.015625 -1.328125 1.5625q-0.859375 0.546875 -1.828125 0.546875q-0.703125 0 -1.265625 -0.296875q-0.546875 -0.296875 -0.90625 -0.75l0 4.046875l-1.40625 0zm1.265625 -7.296875q0 1.609375 0.640625 2.375q0.65625 0.765625 1.578125 0.765625q0.9375 0 1.609375 -0.796875q0.671875 -0.796875 0.671875 -2.453125q0 -1.59375 -0.65625 -2.375q-0.65625 -0.796875 -1.5625 -0.796875q-0.890625 0 -1.59375 0.84375q-0.6875 0.84375 -0.6875 2.4375zm7.6171875 4.109375l0 -8.296875l1.265625 0l0 1.25q0.484375 -0.875 0.890625 -1.15625q0.40625 -0.28125 0.90625 -0.28125q0.703125 0 1.4375 0.453125l-0.484375 1.296875q-0.515625 -0.296875 -1.03125 -0.296875q-0.453125 0 -0.828125 0.28125q-0.359375 0.265625 -0.515625 0.765625q-0.234375 0.75 -0.234375 1.640625l0 4.34375l-1.40625 0zm4.8125 -4.15625q0 -2.296875 1.28125 -3.40625q1.078125 -0.921875 2.609375 -0.921875q1.71875 0 2.796875 1.125q1.09375 1.109375 1.09375 3.09375q0 1.59375 -0.484375 2.515625q-0.484375 0.921875 -1.40625 1.4375q-0.90625 0.5 -2.0 0.5q-1.734375 0 -2.8125 -1.109375q-1.078125 -1.125 -1.078125 -3.234375zm1.453125 0q0 1.59375 0.6875 2.390625q0.703125 0.796875 1.75 0.796875q1.046875 0 1.734375 -0.796875q0.703125 -0.796875 0.703125 -2.4375q0 -1.53125 -0.703125 -2.328125q-0.6875 -0.796875 -1.734375 -0.796875q-1.046875 0 -1.75 0.796875q-0.6875 0.78125 -0.6875 2.375zm7.9609375 -5.671875l0 -1.625l1.40625 0l0 1.625l-1.40625 0zm-1.78125 13.046875l0.265625 -1.1875q0.421875 0.109375 0.671875 0.109375q0.421875 0 0.625 -0.296875q0.21875 -0.28125 0.21875 -1.421875l0 -8.71875l1.40625 0l0 8.75q0 1.53125 -0.390625 2.140625q-0.515625 0.78125 -1.6875 0.78125q-0.578125 0 -1.109375 -0.15625zm11.0234375 -5.890625l1.453125 0.171875q-0.34375 1.28125 -1.28125 1.984375q-0.921875 0.703125 -2.359375 0.703125q-1.828125 0 -2.890625 -1.125q-1.0625 -1.125 -1.0625 -3.140625q0 -2.09375 1.078125 -3.25q1.078125 -1.15625 2.796875 -1.15625q1.65625 0 2.703125 1.140625q1.0625 1.125 1.0625 3.171875q0 0.125 0 0.375l-6.1875 0q0.078125 1.375 0.765625 2.109375q0.703125 0.71875 1.734375 0.71875q0.78125 0 1.328125 -0.40625q0.546875 -0.40625 0.859375 -1.296875zm-4.609375 -2.28125l4.625 0q-0.09375 -1.046875 -0.53125 -1.5625q-0.671875 -0.8125 -1.734375 -0.8125q-0.96875 0 -1.640625 0.65625q-0.65625 0.640625 -0.71875 1.71875zm13.2421875 1.90625l1.390625 0.1875q-0.234375 1.421875 -1.171875 2.234375q-0.921875 0.8125 -2.28125 0.8125q-1.703125 0 -2.75 -1.109375q-1.03125 -1.125 -1.03125 -3.203125q0 -1.34375 0.4375 -2.34375q0.453125 -1.015625 1.359375 -1.515625q0.921875 -0.5 1.984375 -0.5q1.359375 0 2.21875 0.6875q0.859375 0.671875 1.09375 1.9375l-1.359375 0.203125q-0.203125 -0.828125 -0.703125 -1.25q-0.484375 -0.421875 -1.1875 -0.421875q-1.0625 0 -1.734375 0.765625q-0.65625 0.75 -0.65625 2.40625q0 1.671875 0.640625 2.4375q0.640625 0.75 1.671875 0.75q0.828125 0 1.375 -0.5q0.5625 -0.515625 0.703125 -1.578125zm5.65625 1.78125l0.203125 1.25q-0.59375 0.125 -1.0625 0.125q-0.765625 0 -1.1875 -0.234375q-0.421875 -0.25 -0.59375 -0.640625q-0.171875 -0.40625 -0.171875 -1.671875l0 -4.765625l-1.03125 0l0 -1.09375l1.03125 0l0 -2.0625l1.40625 -0.84375l0 2.90625l1.40625 0l0 1.09375l-1.40625 0l0 4.84375q0 0.609375 0.0625 0.78125q0.078125 0.171875 0.25 0.28125q0.171875 0.09375 0.484375 0.09375q0.234375 0 0.609375 -0.0625zm0.8515625 -2.890625q0 -2.296875 1.28125 -3.40625q1.078125 -0.921875 2.609375 -0.921875q1.71875 0 2.796875 1.125q1.09375 1.109375 1.09375 3.09375q0 1.59375 -0.484375 2.515625q-0.484375 0.921875 -1.40625 1.4375q-0.90625 0.5 -2.0 0.5q-1.734375 0 -2.8125 -1.109375q-1.078125 -1.125 -1.078125 -3.234375zm1.453125 0q0 1.59375 0.6875 2.390625q0.703125 0.796875 1.75 0.796875q1.046875 0 1.734375 -0.796875q0.703125 -0.796875 0.703125 -2.4375q0 -1.53125 -0.703125 -2.328125q-0.6875 -0.796875 -1.734375 -0.796875q-1.046875 0 -1.75 0.796875q-0.6875 0.78125 -0.6875 2.375zm7.9609375 4.15625l0 -8.296875l1.265625 0l0 1.25q0.484375 -0.875 0.890625 -1.15625q0.40625 -0.28125 0.90625 -0.28125q0.703125 0 1.4375 0.453125l-0.484375 1.296875q-0.515625 -0.296875 -1.03125 -0.296875q-0.453125 0 -0.828125 0.28125q-0.359375 0.265625 -0.515625 0.765625q-0.234375 0.75 -0.234375 1.640625l0 4.34375l-1.40625 0z" fill-rule="nonzero"></path><path fill="#000000" fill-opacity="0.0" d="m194.36482 386.3727l288.28345 -265.48032" fill-rule="nonzero"></path><path stroke="#cc0000" stroke-width="1.0" stroke-linejoin="round" stroke-linecap="butt" stroke-dasharray="4.0,3.0" d="m194.36482 386.3727l288.28345 -265.48032" fill-rule="nonzero"></path><path fill="#000000" fill-opacity="0.0" d="m194.36482 386.3727l288.28345 -36.06299" fill-rule="nonzero"></path><path stroke="#cc0000" stroke-width="1.0" stroke-linejoin="round" stroke-linecap="butt" stroke-dasharray="4.0,3.0" d="m194.36482 386.3727l288.28345 -36.06299" fill-rule="nonzero"></path><path fill="#000000" fill-opacity="0.0" d="m194.36482 386.3727l634.1733 184.50394" fill-rule="nonzero"></path><path stroke="#cc0000" stroke-width="1.0" stroke-linejoin="round" stroke-linecap="butt" stroke-dasharray="4.0,3.0" d="m194.36482 386.3727l634.1733 184.50394" fill-rule="nonzero"></path><path fill="#990000" d="m183.46982 367.58792l1.7664032 37.060364l-18.530182 -1.7663879l0.8818817 -32.64569z" fill-rule="nonzero"></path><path stroke="#000000" stroke-width="1.0" stroke-linejoin="round" stroke-linecap="butt" d="m183.46982 367.58792l1.7664032 37.060364l-18.530182 -1.7663879l0.8818817 -32.64569z" fill-rule="nonzero"></path><path fill="#000000" fill-opacity="0.0" d="m150.26247 339.17584l116.063 0l0 41.921265l-116.063 0z" fill-rule="nonzero"></path><path fill="#000000" d="m161.85622 363.53586l-2.546875 -8.296875l1.453125 0l1.328125 4.78125l0.484375 1.78125q0.03125 -0.125 0.4375 -1.703125l1.3125 -4.859375l1.453125 0l1.234375 4.8125l0.421875 1.578125l0.46875 -1.59375l1.421875 -4.796875l1.375 0l-2.59375 8.296875l-1.46875 0l-1.3125 -4.96875l-0.328125 -1.421875l-1.671875 6.390625l-1.46875 0zm15.6953125 -2.671875l1.453125 0.171875q-0.34375 1.28125 -1.28125 1.984375q-0.921875 0.703125 -2.359375 0.703125q-1.828125 0 -2.890625 -1.125q-1.0625 -1.125 -1.0625 -3.140625q0 -2.09375 1.078125 -3.25q1.078125 -1.15625 2.796875 -1.15625q1.65625 0 2.703125 1.140625q1.0625 1.125 1.0625 3.171875q0 0.125 0 0.375l-6.1875 0q0.078125 1.375 0.765625 2.109375q0.703125 0.71875 1.734375 0.71875q0.78125 0 1.328125 -0.40625q0.546875 -0.40625 0.859375 -1.296875zm-4.609375 -2.28125l4.625 0q-0.09375 -1.046875 -0.53125 -1.5625q-0.671875 -0.8125 -1.734375 -0.8125q-0.96875 0 -1.640625 0.65625q-0.65625 0.640625 -0.71875 1.71875zm9.1328125 4.953125l-1.3125 0l0 -11.453125l1.40625 0l0 4.078125q0.890625 -1.109375 2.28125 -1.109375q0.765625 0 1.4375 0.3125q0.6875 0.296875 1.125 0.859375q0.453125 0.5625 0.703125 1.359375q0.25 0.78125 0.25 1.671875q0 2.140625 -1.0625 3.3125q-1.046875 1.15625 -2.53125 1.15625q-1.46875 0 -2.296875 -1.234375l0 1.046875zm-0.015625 -4.21875q0 1.5 0.40625 2.15625q0.65625 1.09375 1.796875 1.09375q0.921875 0 1.59375 -0.796875q0.671875 -0.8125 0.671875 -2.390625q0 -1.625 -0.65625 -2.390625q-0.640625 -0.78125 -1.546875 -0.78125q-0.921875 0 -1.59375 0.796875q-0.671875 0.796875 -0.671875 2.3125zm13.0234375 1.171875l1.390625 0.1875q-0.234375 1.421875 -1.171875 2.234375q-0.921875 0.8125 -2.28125 0.8125q-1.703125 0 -2.75 -1.109375q-1.03125 -1.125 -1.03125 -3.203125q0 -1.34375 0.4375 -2.34375q0.453125 -1.015625 1.359375 -1.515625q0.921875 -0.5 1.984375 -0.5q1.359375 0 2.21875 0.6875q0.859375 0.671875 1.09375 1.9375l-1.359375 0.203125q-0.203125 -0.828125 -0.703125 -1.25q-0.484375 -0.421875 -1.1875 -0.421875q-1.0625 0 -1.734375 0.765625q-0.65625 0.75 -0.65625 2.40625q0 1.671875 0.640625 2.4375q0.640625 0.75 1.671875 0.75q0.828125 0 1.375 -0.5q0.5625 -0.515625 0.703125 -1.578125zm8.0 2.015625q-0.78125 0.671875 -1.5 0.953125q-0.71875 0.265625 -1.546875 0.265625q-1.375 0 -2.109375 -0.671875q-0.734375 -0.671875 -0.734375 -1.703125q0 -0.609375 0.28125 -1.109375q0.28125 -0.515625 0.71875 -0.8125q0.453125 -0.3125 1.015625 -0.46875q0.421875 -0.109375 1.25 -0.203125q1.703125 -0.203125 2.515625 -0.484375q0 -0.296875 0 -0.375q0 -0.859375 -0.390625 -1.203125q-0.546875 -0.484375 -1.609375 -0.484375q-0.984375 0 -1.46875 0.359375q-0.46875 0.34375 -0.6875 1.21875l-1.375 -0.1875q0.1875 -0.875 0.609375 -1.421875q0.4375 -0.546875 1.25 -0.828125q0.8125 -0.296875 1.875 -0.296875q1.0625 0 1.71875 0.25q0.671875 0.25 0.984375 0.625q0.3125 0.375 0.4375 0.953125q0.078125 0.359375 0.078125 1.296875l0 1.875q0 1.96875 0.078125 2.484375q0.09375 0.515625 0.359375 1.0l-1.46875 0q-0.21875 -0.4375 -0.28125 -1.03125zm-0.109375 -3.140625q-0.765625 0.3125 -2.296875 0.53125q-0.875 0.125 -1.234375 0.28125q-0.359375 0.15625 -0.5625 0.46875q-0.1875 0.296875 -0.1875 0.65625q0 0.5625 0.421875 0.9375q0.4375 0.375 1.25 0.375q0.8125 0 1.4375 -0.34375q0.640625 -0.359375 0.9375 -0.984375q0.234375 -0.46875 0.234375 -1.40625l0 -0.515625zm3.6015625 4.171875l0 -8.296875l1.25 0l0 1.15625q0.390625 -0.609375 1.03125 -0.96875q0.65625 -0.375 1.484375 -0.375q0.921875 0 1.515625 0.390625q0.59375 0.375 0.828125 1.0625q0.984375 -1.453125 2.5625 -1.453125q1.234375 0 1.890625 0.6875q0.671875 0.671875 0.671875 2.09375l0 5.703125l-1.390625 0l0 -5.234375q0 -0.84375 -0.140625 -1.203125q-0.140625 -0.375 -0.5 -0.59375q-0.359375 -0.234375 -0.84375 -0.234375q-0.875 0 -1.453125 0.578125q-0.578125 0.578125 -0.578125 1.859375l0 4.828125l-1.40625 0l0 -5.390625q0 -0.9375 -0.34375 -1.40625q-0.34375 -0.46875 -1.125 -0.46875q-0.59375 0 -1.09375 0.3125q-0.5 0.3125 -0.734375 0.921875q-0.21875 0.59375 -0.21875 1.71875l0 4.3125l-1.40625 0z" fill-rule="nonzero"></path><path fill="#3d85c6" d="m463.7638 293.7244l0 0c0 -11.576233 8.69342 -20.960602 19.417297 -20.960602l0 0c5.149811 0 10.088684 2.2083435 13.730133 6.139221c3.641449 3.9308777 5.687195 9.262299 5.687195 14.821381l0 0c0 11.576263 -8.69342 20.960632 -19.417328 20.960632l0 0c-10.723877 0 -19.417297 -9.384369 -19.417297 -20.960632z" fill-rule="nonzero"></path><path stroke="#000000" stroke-width="1.0" stroke-linejoin="round" stroke-linecap="butt" d="m463.7638 293.7244l0 0c0 -11.576233 8.69342 -20.960602 19.417297 -20.960602l0 0c5.149811 0 10.088684 2.2083435 13.730133 6.139221c3.641449 3.9308777 5.687195 9.262299 5.687195 14.821381l0 0c0 11.576263 -8.69342 20.960632 -19.417328 20.960632l0 0c-10.723877 0 -19.417297 -9.384369 -19.417297 -20.960632z" fill-rule="nonzero"></path><path fill="#000000" fill-opacity="0.0" d="m483.1811 314.68503l0.881897 67.49606" fill-rule="nonzero"></path><path stroke="#000000" stroke-width="1.0" stroke-linejoin="round" stroke-linecap="butt" d="m483.1811 314.68503l0.881897 67.49606" fill-rule="nonzero"></path><path fill="#000000" fill-opacity="0.0" d="m484.05774 382.17584l-33.543304 55.590546" fill-rule="nonzero"></path><path stroke="#000000" stroke-width="1.0" stroke-linejoin="round" stroke-linecap="butt" d="m484.05774 382.17584l-33.543304 55.590546" fill-rule="nonzero"></path><path fill="#000000" fill-opacity="0.0" d="m483.17584 383.05774l25.57483 60.881897" fill-rule="nonzero"></path><path stroke="#000000" stroke-width="1.0" stroke-linejoin="round" stroke-linecap="butt" d="m483.17584 383.05774l25.57483 60.881897" fill-rule="nonzero"></path><path fill="#000000" fill-opacity="0.0" d="m484.05774 334.53018l-30.015747 -20.283478" fill-rule="nonzero"></path><path stroke="#000000" stroke-width="1.0" stroke-linejoin="round" stroke-linecap="butt" d="m484.05774 334.53018l-30.015747 -20.283478" fill-rule="nonzero"></path><path fill="#000000" fill-opacity="0.0" d="m483.17584 334.53018l30.86615 -13.2283325" fill-rule="nonzero"></path><path stroke="#000000" stroke-width="1.0" stroke-linejoin="round" stroke-linecap="butt" d="m483.17584 334.53018l30.86615 -13.2283325" fill-rule="nonzero"></path><path fill="#3d85c6" d="m663.3097 413.90027l0 0c0 -11.576233 8.69342 -20.960632 19.417358 -20.960632l0 0c5.1497803 0 10.088623 2.2083435 13.730103 6.139221c3.6414795 3.9308777 5.687195 9.262299 5.687195 14.821411l0 0c0 11.576233 -8.69342 20.960632 -19.417297 20.960632l0 0c-10.723938 0 -19.417358 -9.384399 -19.417358 -20.960632z" fill-rule="nonzero"></path><path stroke="#000000" stroke-width="1.0" stroke-linejoin="round" stroke-linecap="butt" d="m663.3097 413.90027l0 0c0 -11.576233 8.69342 -20.960632 19.417358 -20.960632l0 0c5.1497803 0 10.088623 2.2083435 13.730103 6.139221c3.6414795 3.9308777 5.687195 9.262299 5.687195 14.821411l0 0c0 11.576233 -8.69342 20.960632 -19.417297 20.960632l0 0c-10.723938 0 -19.417358 -9.384399 -19.417358 -20.960632z" fill-rule="nonzero"></path><path fill="#000000" fill-opacity="0.0" d="m682.72705 434.8609l0.881897 67.49606" fill-rule="nonzero"></path><path stroke="#000000" stroke-width="1.0" stroke-linejoin="round" stroke-linecap="butt" d="m682.72705 434.8609l0.881897 67.49606" fill-rule="nonzero"></path><path fill="#000000" fill-opacity="0.0" d="m683.6037 502.3517l-33.543335 55.590546" fill-rule="nonzero"></path><path stroke="#000000" stroke-width="1.0" stroke-linejoin="round" stroke-linecap="butt" d="m683.6037 502.3517l-33.543335 55.590546" fill-rule="nonzero"></path><path fill="#000000" fill-opacity="0.0" d="m682.7218 503.23358l25.574768 60.881897" fill-rule="nonzero"></path><path stroke="#000000" stroke-width="1.0" stroke-linejoin="round" stroke-linecap="butt" d="m682.7218 503.23358l25.574768 60.881897" fill-rule="nonzero"></path><path fill="#000000" fill-opacity="0.0" d="m683.6037 454.70602l-30.015747 -20.283447" fill-rule="nonzero"></path><path stroke="#000000" stroke-width="1.0" stroke-linejoin="round" stroke-linecap="butt" d="m683.6037 454.70602l-30.015747 -20.283447" fill-rule="nonzero"></path><path fill="#000000" fill-opacity="0.0" d="m682.7218 454.70602l30.86615 -13.2283325" fill-rule="nonzero"></path><path stroke="#000000" stroke-width="1.0" stroke-linejoin="round" stroke-linecap="butt" d="m682.7218 454.70602l30.86615 -13.2283325" fill-rule="nonzero"></path><path fill="#000000" fill-opacity="0.0" d="m565.0 274.44052l162.01575 0l0 41.921265l-162.01575 0z" fill-rule="nonzero"></path><path fill="#000000" d="m575.46875 301.36053l0 -13.59375l5.125 0q1.359375 0 2.078125 0.125q1.0 0.171875 1.671875 0.640625q0.671875 0.46875 1.078125 1.3125q0.421875 0.84375 0.421875 1.84375q0 1.734375 -1.109375 2.9375q-1.09375 1.203125 -3.984375 1.203125l-3.484375 0l0 5.53125l-1.796875 0zm1.796875 -7.140625l3.515625 0q1.75 0 2.46875 -0.640625q0.734375 -0.65625 0.734375 -1.828125q0 -0.859375 -0.4375 -1.46875q-0.421875 -0.609375 -1.125 -0.796875q-0.453125 -0.125 -1.671875 -0.125l-3.484375 0l0 4.859375zm10.4123535 7.140625l0 -9.859375l1.5 0l0 1.5q0.578125 -1.046875 1.0625 -1.375q0.484375 -0.34375 1.078125 -0.34375q0.84375 0 1.71875 0.546875l-0.578125 1.546875q-0.609375 -0.359375 -1.234375 -0.359375q-0.546875 0 -0.984375 0.328125q-0.421875 0.328125 -0.609375 0.90625q-0.28125 0.890625 -0.28125 1.953125l0 5.15625l-1.671875 0zm5.6032715 -4.921875q0 -2.734375 1.53125 -4.0625q1.265625 -1.09375 3.09375 -1.09375q2.03125 0 3.3125 1.34375q1.296875 1.328125 1.296875 3.671875q0 1.90625 -0.578125 3.0q-0.5625 1.078125 -1.65625 1.6875q-1.078125 0.59375 -2.375 0.59375q-2.0625 0 -3.34375 -1.328125q-1.28125 -1.328125 -1.28125 -3.8125zm1.71875 0q0 1.890625 0.828125 2.828125q0.828125 0.9375 2.078125 0.9375q1.25 0 2.0625 -0.9375q0.828125 -0.953125 0.828125 -2.890625q0 -1.828125 -0.828125 -2.765625q-0.828125 -0.9375 -2.0625 -0.9375q-1.25 0 -2.078125 0.9375q-0.828125 0.9375 -0.828125 2.828125zm9.281982 -6.734375l0 -1.9375l1.65625 0l0 1.9375l-1.65625 0zm-2.125 15.484375l0.3125 -1.421875q0.5 0.125 0.796875 0.125q0.515625 0 0.765625 -0.34375q0.25 -0.328125 0.25 -1.6875l0 -10.359375l1.65625 0l0 10.390625q0 1.828125 -0.46875 2.546875q-0.59375 0.921875 -2.0 0.921875q-0.671875 0 -1.3125 -0.171875zm13.019775 -7.0l1.71875 0.21875q-0.40625 1.5 -1.515625 2.34375q-1.09375 0.828125 -2.8125 0.828125q-2.15625 0 -3.421875 -1.328125q-1.265625 -1.328125 -1.265625 -3.734375q0 -2.484375 1.265625 -3.859375q1.28125 -1.375 3.328125 -1.375q1.984375 0 3.234375 1.34375q1.25 1.34375 1.25 3.796875q0 0.140625 -0.015625 0.4375l-7.34375 0q0.09375 1.625 0.921875 2.484375q0.828125 0.859375 2.0625 0.859375q0.90625 0 1.546875 -0.46875q0.65625 -0.484375 1.046875 -1.546875zm-5.484375 -2.703125l5.5 0q-0.109375 -1.234375 -0.625 -1.859375q-0.796875 -0.96875 -2.078125 -0.96875q-1.140625 0 -1.9375 0.78125q-0.78125 0.765625 -0.859375 2.046875zm15.547607 2.265625l1.640625 0.21875q-0.265625 1.6875 -1.375 2.65625q-1.109375 0.953125 -2.734375 0.953125q-2.015625 0 -3.25 -1.3125q-1.21875 -1.328125 -1.21875 -3.796875q0 -1.59375 0.515625 -2.78125q0.53125 -1.203125 1.609375 -1.796875q1.09375 -0.609375 2.359375 -0.609375q1.609375 0 2.625 0.8125q1.015625 0.8125 1.3125 2.3125l-1.625 0.25q-0.234375 -1.0 -0.828125 -1.5q-0.59375 -0.5 -1.421875 -0.5q-1.265625 0 -2.0625 0.90625q-0.78125 0.90625 -0.78125 2.859375q0 1.984375 0.765625 2.890625q0.765625 0.890625 1.984375 0.890625q0.984375 0 1.640625 -0.59375q0.65625 -0.609375 0.84375 -1.859375zm6.546875 2.109375l0.234375 1.484375q-0.703125 0.140625 -1.265625 0.140625q-0.90625 0 -1.40625 -0.28125q-0.5 -0.296875 -0.703125 -0.75q-0.203125 -0.46875 -0.203125 -1.984375l0 -5.65625l-1.234375 0l0 -1.3125l1.234375 0l0 -2.4375l1.65625 -1.0l0 3.4375l1.6875 0l0 1.3125l-1.6875 0l0 5.75q0 0.71875 0.078125 0.921875q0.09375 0.203125 0.296875 0.328125q0.203125 0.125 0.578125 0.125q0.265625 0 0.734375 -0.078125zm8.2771 -1.671875l1.71875 0.21875q-0.40625 1.5 -1.515625 2.34375q-1.09375 0.828125 -2.8125 0.828125q-2.15625 0 -3.421875 -1.328125q-1.265625 -1.328125 -1.265625 -3.734375q0 -2.484375 1.265625 -3.859375q1.28125 -1.375 3.328125 -1.375q1.984375 0 3.234375 1.34375q1.25 1.34375 1.25 3.796875q0 0.140625 -0.015625 0.4375l-7.34375 0q0.09375 1.625 0.921875 2.484375q0.828125 0.859375 2.0625 0.859375q0.90625 0 1.546875 -0.46875q0.65625 -0.484375 1.046875 -1.546875zm-5.484375 -2.703125l5.5 0q-0.109375 -1.234375 -0.625 -1.859375q-0.796875 -0.96875 -2.078125 -0.96875q-1.140625 0 -1.9375 0.78125q-0.78125 0.765625 -0.859375 2.046875zm15.500671 5.875l0 -1.25q-0.9375 1.46875 -2.75 1.46875q-1.171875 0 -2.171875 -0.640625q-0.984375 -0.65625 -1.53125 -1.8125q-0.53125 -1.171875 -0.53125 -2.6875q0 -1.46875 0.484375 -2.671875q0.5 -1.203125 1.46875 -1.84375q0.984375 -0.640625 2.203125 -0.640625q0.890625 0 1.578125 0.375q0.703125 0.375 1.140625 0.984375l0 -4.875l1.65625 0l0 13.59375l-1.546875 0zm-5.28125 -4.921875q0 1.890625 0.796875 2.828125q0.8125 0.9375 1.890625 0.9375q1.09375 0 1.859375 -0.890625q0.765625 -0.890625 0.765625 -2.734375q0 -2.015625 -0.78125 -2.953125q-0.78125 -0.953125 -1.921875 -0.953125q-1.109375 0 -1.859375 0.90625q-0.75 0.90625 -0.75 2.859375zm14.465271 -6.765625l0 -1.90625l1.671875 0l0 1.90625l-1.671875 0zm0 11.6875l0 -9.859375l1.671875 0l0 9.859375l-1.671875 0zm4.1292114 0l0 -9.859375l1.5 0l0 1.390625q0.453125 -0.71875 1.21875 -1.15625q0.78125 -0.453125 1.765625 -0.453125q1.09375 0 1.796875 0.453125q0.703125 0.453125 0.984375 1.28125q1.171875 -1.734375 3.046875 -1.734375q1.46875 0 2.25 0.8125q0.796875 0.8125 0.796875 2.5l0 6.765625l-1.671875 0l0 -6.203125q0 -1.0 -0.15625 -1.4375q-0.15625 -0.453125 -0.59375 -0.71875q-0.421875 -0.265625 -1.0 -0.265625q-1.03125 0 -1.71875 0.6875q-0.6875 0.6875 -0.6875 2.21875l0 5.71875l-1.671875 0l0 -6.40625q0 -1.109375 -0.40625 -1.65625q-0.40625 -0.5625 -1.34375 -0.5625q-0.703125 0 -1.3125 0.375q-0.59375 0.359375 -0.859375 1.078125q-0.265625 0.71875 -0.265625 2.0625l0 5.109375l-1.671875 0zm21.978333 -1.21875q-0.9375 0.796875 -1.796875 1.125q-0.859375 0.3125 -1.84375 0.3125q-1.609375 0 -2.484375 -0.78125q-0.875 -0.796875 -0.875 -2.03125q0 -0.734375 0.328125 -1.328125q0.328125 -0.59375 0.859375 -0.953125q0.53125 -0.359375 1.203125 -0.546875q0.5 -0.140625 1.484375 -0.25q2.03125 -0.25 2.984375 -0.578125q0 -0.34375 0 -0.4375q0 -1.015625 -0.46875 -1.4375q-0.640625 -0.5625 -1.90625 -0.5625q-1.171875 0 -1.734375 0.40625q-0.5625 0.40625 -0.828125 1.46875l-1.640625 -0.234375q0.234375 -1.046875 0.734375 -1.6875q0.515625 -0.640625 1.46875 -0.984375q0.96875 -0.359375 2.25 -0.359375q1.265625 0 2.046875 0.296875q0.78125 0.296875 1.15625 0.75q0.375 0.453125 0.515625 1.140625q0.09375 0.421875 0.09375 1.53125l0 2.234375q0 2.328125 0.09375 2.953125q0.109375 0.609375 0.4375 1.171875l-1.75 0q-0.265625 -0.515625 -0.328125 -1.21875zm-0.140625 -3.71875q-0.90625 0.359375 -2.734375 0.625q-1.03125 0.140625 -1.453125 0.328125q-0.421875 0.1875 -0.65625 0.546875q-0.234375 0.359375 -0.234375 0.796875q0 0.671875 0.5 1.125q0.515625 0.4375 1.484375 0.4375q0.96875 0 1.71875 -0.421875q0.75 -0.4375 1.109375 -1.15625q0.265625 -0.578125 0.265625 -1.671875l0 -0.609375zm3.7819214 5.75l1.609375 0.25q0.109375 0.75 0.578125 1.09375q0.609375 0.453125 1.6875 0.453125q1.171875 0 1.796875 -0.46875q0.625 -0.453125 0.859375 -1.28125q0.125 -0.515625 0.109375 -2.15625q-1.09375 1.296875 -2.71875 1.296875q-2.03125 0 -3.15625 -1.46875q-1.109375 -1.46875 -1.109375 -3.515625q0 -1.40625 0.515625 -2.59375q0.515625 -1.203125 1.484375 -1.84375q0.96875 -0.65625 2.265625 -0.65625q1.75 0 2.875 1.40625l0 -1.1875l1.546875 0l0 8.515625q0 2.3125 -0.46875 3.265625q-0.46875 0.96875 -1.484375 1.515625q-1.015625 0.5625 -2.5 0.5625q-1.765625 0 -2.859375 -0.796875q-1.078125 -0.796875 -1.03125 -2.390625zm1.375 -5.921875q0 1.953125 0.765625 2.84375q0.78125 0.890625 1.9375 0.890625q1.140625 0 1.921875 -0.890625q0.78125 -0.890625 0.78125 -2.78125q0 -1.8125 -0.8125 -2.71875q-0.796875 -0.921875 -1.921875 -0.921875q-1.109375 0 -1.890625 0.90625q-0.78125 0.890625 -0.78125 2.671875zm16.047607 1.9375l1.71875 0.21875q-0.40625 1.5 -1.515625 2.34375q-1.09375 0.828125 -2.8125 0.828125q-2.15625 0 -3.421875 -1.328125q-1.265625 -1.328125 -1.265625 -3.734375q0 -2.484375 1.265625 -3.859375q1.28125 -1.375 3.328125 -1.375q1.984375 0 3.234375 1.34375q1.25 1.34375 1.25 3.796875q0 0.140625 -0.015625 0.4375l-7.34375 0q0.09375 1.625 0.921875 2.484375q0.828125 0.859375 2.0625 0.859375q0.90625 0 1.546875 -0.46875q0.65625 -0.484375 1.046875 -1.546875zm-5.484375 -2.703125l5.5 0q-0.109375 -1.234375 -0.625 -1.859375q-0.796875 -0.96875 -2.078125 -0.96875q-1.140625 0 -1.9375 0.78125q-0.78125 0.765625 -0.859375 2.046875z" fill-rule="nonzero"></path><path fill="#3d85c6" d="m560.36743 353.44095l0 0c0 -11.576233 8.693481 -20.960632 19.417358 -20.960632l0 0c5.1497803 0 10.088623 2.2083435 13.730103 6.139221c3.6414795 3.9308777 5.687195 9.262299 5.687195 14.821411l0 0c0 11.576233 -8.69342 20.960632 -19.417297 20.960632l0 0c-10.723877 0 -19.417358 -9.384399 -19.417358 -20.960632z" fill-rule="nonzero"></path><path stroke="#000000" stroke-width="1.0" stroke-linejoin="round" stroke-linecap="butt" d="m560.36743 353.44095l0 0c0 -11.576233 8.693481 -20.960632 19.417358 -20.960632l0 0c5.1497803 0 10.088623 2.2083435 13.730103 6.139221c3.6414795 3.9308777 5.687195 9.262299 5.687195 14.821411l0 0c0 11.576233 -8.69342 20.960632 -19.417297 20.960632l0 0c-10.723877 0 -19.417358 -9.384399 -19.417358 -20.960632z" fill-rule="nonzero"></path><path fill="#000000" fill-opacity="0.0" d="m579.7848 374.40158l0.881897 67.49606" fill-rule="nonzero"></path><path stroke="#000000" stroke-width="1.0" stroke-linejoin="round" stroke-linecap="butt" d="m579.7848 374.40158l0.881897 67.49606" fill-rule="nonzero"></path><path fill="#000000" fill-opacity="0.0" d="m580.66144 441.8924l-33.543335 55.590546" fill-rule="nonzero"></path><path stroke="#000000" stroke-width="1.0" stroke-linejoin="round" stroke-linecap="butt" d="m580.66144 441.8924l-33.543335 55.590546" fill-rule="nonzero"></path><path fill="#000000" fill-opacity="0.0" d="m579.77954 442.7743l25.574768 60.881866" fill-rule="nonzero"></path><path stroke="#000000" stroke-width="1.0" stroke-linejoin="round" stroke-linecap="butt" d="m579.77954 442.7743l25.574768 60.881866" fill-rule="nonzero"></path><path fill="#000000" fill-opacity="0.0" d="m580.66144 394.2467l-30.015747 -20.283447" fill-rule="nonzero"></path><path stroke="#000000" stroke-width="1.0" stroke-linejoin="round" stroke-linecap="butt" d="m580.66144 394.2467l-30.015747 -20.283447" fill-rule="nonzero"></path><path fill="#000000" fill-opacity="0.0" d="m579.77954 394.2467l30.86615 -13.2283325" fill-rule="nonzero"></path><path stroke="#000000" stroke-width="1.0" stroke-linejoin="round" stroke-linecap="butt" d="m579.77954 394.2467l30.86615 -13.2283325" fill-rule="nonzero"></path><path fill="#cfe2f3" d="m144.17586 523.29395l-47.648315 0l0 4.5932007l47.648315 0z" fill-rule="nonzero"></path><path fill="#a5b4c2" d="m96.52754 523.29395l-10.5879135 -10.587891l0 4.5932007l10.5879135 10.587891z" fill-rule="nonzero"></path><path fill="#d8e7f5" d="m144.17586 523.29395l-10.587906 -10.587891l-47.648323 0l10.5879135 10.587891z" fill-rule="nonzero"></path><path fill="#000000" fill-opacity="0.0" d="m144.17586 523.29395l-10.587906 -10.587891l-47.648323 0l0 4.5932007l10.5879135 10.587891l47.648315 0zm0 0l-47.648315 0l-10.5879135 -10.587891m10.5879135 10.587891l0 4.5932007" fill-rule="nonzero"></path><path stroke="#000000" stroke-width="1.0" stroke-linejoin="round" stroke-linecap="butt" d="m144.17586 523.29395l-10.587906 -10.587891l-47.648323 0l0 4.5932007l10.5879135 10.587891l47.648315 0zm0 0l-47.648315 0l-10.5879135 -10.587891m10.5879135 10.587891l0 4.5932007" fill-rule="nonzero"></path><path fill="#000000" fill-opacity="0.0" d="m58.351707 524.7638l131.46457 0l0 41.921265l-131.46457 0z" fill-rule="nonzero"></path><path fill="#000000" d="m68.85171 551.6838l0 -13.59375l6.03125 0q1.8125 0 2.75 0.359375q0.953125 0.359375 1.515625 1.296875q0.5625 0.921875 0.5625 2.046875q0 1.453125 -0.9375 2.453125q-0.921875 0.984375 -2.890625 1.25q0.71875 0.34375 1.09375 0.671875q0.78125 0.734375 1.484375 1.8125l2.375 3.703125l-2.265625 0l-1.796875 -2.828125q-0.796875 -1.21875 -1.3125 -1.875q-0.5 -0.65625 -0.90625 -0.90625q-0.40625 -0.265625 -0.8125 -0.359375q-0.3125 -0.078125 -1.015625 -0.078125l-2.078125 0l0 6.046875l-1.796875 0zm1.796875 -7.59375l3.859375 0q1.234375 0 1.921875 -0.25q0.703125 -0.265625 1.0625 -0.828125q0.375 -0.5625 0.375 -1.21875q0 -0.96875 -0.703125 -1.578125q-0.703125 -0.625 -2.21875 -0.625l-4.296875 0l0 4.5zm17.863571 6.375q-0.9375 0.796875 -1.796875 1.125q-0.859375 0.3125 -1.84375 0.3125q-1.609375 0 -2.484375 -0.78125q-0.875 -0.796875 -0.875 -2.03125q0 -0.734375 0.328125 -1.328125q0.328125 -0.59375 0.859375 -0.953125q0.53125 -0.359375 1.203125 -0.546875q0.5 -0.140625 1.484375 -0.25q2.03125 -0.25 2.984375 -0.578125q0 -0.34375 0 -0.4375q0 -1.015625 -0.46875 -1.4375q-0.640625 -0.5625 -1.90625 -0.5625q-1.171875 0 -1.734375 0.40625q-0.5625 0.40625 -0.828125 1.46875l-1.640625 -0.234375q0.234375 -1.046875 0.734375 -1.6875q0.515625 -0.640625 1.46875 -0.984375q0.96875 -0.359375 2.25 -0.359375q1.265625 0 2.046875 0.296875q0.78125 0.296875 1.15625 0.75q0.375 0.453125 0.515625 1.140625q0.09375 0.421875 0.09375 1.53125l0 2.234375q0 2.328125 0.09375 2.953125q0.109375 0.609375 0.4375 1.171875l-1.75 0q-0.265625 -0.515625 -0.328125 -1.21875zm-0.140625 -3.71875q-0.90625 0.359375 -2.734375 0.625q-1.03125 0.140625 -1.453125 0.328125q-0.421875 0.1875 -0.65625 0.546875q-0.234375 0.359375 -0.234375 0.796875q0 0.671875 0.5 1.125q0.515625 0.4375 1.484375 0.4375q0.96875 0 1.71875 -0.421875q0.75 -0.4375 1.109375 -1.15625q0.265625 -0.578125 0.265625 -1.671875l0 -0.609375zm3.4069672 2.0l1.65625 -0.265625q0.140625 1.0 0.765625 1.53125q0.640625 0.515625 1.78125 0.515625q1.15625 0 1.703125 -0.46875q0.5625 -0.46875 0.5625 -1.09375q0 -0.5625 -0.484375 -0.890625q-0.34375 -0.21875 -1.703125 -0.5625q-1.84375 -0.46875 -2.5625 -0.796875q-0.703125 -0.34375 -1.078125 -0.9375q-0.359375 -0.609375 -0.359375 -1.328125q0 -0.65625 0.296875 -1.21875q0.3125 -0.5625 0.828125 -0.9375q0.390625 -0.28125 1.0625 -0.484375q0.671875 -0.203125 1.4375 -0.203125q1.171875 0 2.046875 0.34375q0.875 0.328125 1.28125 0.90625q0.421875 0.5625 0.578125 1.515625l-1.625 0.21875q-0.109375 -0.75 -0.65625 -1.171875q-0.53125 -0.4375 -1.5 -0.4375q-1.15625 0 -1.640625 0.390625q-0.484375 0.375 -0.484375 0.875q0 0.328125 0.203125 0.59375q0.203125 0.265625 0.640625 0.4375q0.25 0.09375 1.46875 0.4375q1.765625 0.46875 2.46875 0.765625q0.703125 0.296875 1.09375 0.875q0.40625 0.578125 0.40625 1.4375q0 0.828125 -0.484375 1.578125q-0.484375 0.734375 -1.40625 1.140625q-0.921875 0.390625 -2.078125 0.390625q-1.921875 0 -2.9375 -0.796875q-1.0 -0.796875 -1.28125 -2.359375zm10.0 6.71875l0 -13.640625l1.53125 0l0 1.28125q0.53125 -0.75 1.203125 -1.125q0.6875 -0.375 1.640625 -0.375q1.265625 0 2.234375 0.65625q0.96875 0.640625 1.453125 1.828125q0.5 1.1875 0.5 2.59375q0 1.515625 -0.546875 2.734375q-0.546875 1.203125 -1.578125 1.84375q-1.03125 0.640625 -2.171875 0.640625q-0.84375 0 -1.515625 -0.34375q-0.65625 -0.359375 -1.078125 -0.890625l0 4.796875l-1.671875 0zm1.515625 -8.65625q0 1.90625 0.765625 2.8125q0.78125 0.90625 1.875 0.90625q1.109375 0 1.890625 -0.9375q0.796875 -0.9375 0.796875 -2.921875q0 -1.875 -0.78125 -2.8125q-0.765625 -0.9375 -1.84375 -0.9375q-1.0625 0 -1.890625 1.0q-0.8125 1.0 -0.8125 2.890625zm10.406967 4.875l-1.546875 0l0 -13.59375l1.65625 0l0 4.84375q1.0625 -1.328125 2.703125 -1.328125q0.90625 0 1.71875 0.375q0.8125 0.359375 1.328125 1.03125q0.53125 0.65625 0.828125 1.59375q0.296875 0.9375 0.296875 2.0q0 2.53125 -1.25 3.921875q-1.25 1.375 -3.0 1.375q-1.75 0 -2.734375 -1.453125l0 1.234375zm-0.015625 -5.0q0 1.765625 0.46875 2.5625q0.796875 1.28125 2.140625 1.28125q1.09375 0 1.890625 -0.9375q0.796875 -0.953125 0.796875 -2.84375q0 -1.921875 -0.765625 -2.84375q-0.765625 -0.921875 -1.84375 -0.921875q-1.09375 0 -1.890625 0.953125q-0.796875 0.953125 -0.796875 2.75zm15.59446 1.828125l1.71875 0.21875q-0.40625 1.5 -1.515625 2.34375q-1.09375 0.828125 -2.8124924 0.828125q-2.15625 0 -3.421875 -1.328125q-1.265625 -1.328125 -1.265625 -3.734375q0 -2.484375 1.265625 -3.859375q1.28125 -1.375 3.328125 -1.375q1.9843674 0 3.2343674 1.34375q1.25 1.34375 1.25 3.796875q0 0.140625 -0.015625 0.4375l-7.3437424 0q0.09375 1.625 0.921875 2.484375q0.828125 0.859375 2.0625 0.859375q0.90625 0 1.5468674 -0.46875q0.65625 -0.484375 1.046875 -1.546875zm-5.4843674 -2.703125l5.4999924 0q-0.109375 -1.234375 -0.625 -1.859375q-0.7968674 -0.96875 -2.0781174 -0.96875q-1.140625 0 -1.9375 0.78125q-0.78125 0.765625 -0.859375 2.046875zm9.09446 5.875l0 -9.859375l1.5 0l0 1.5q0.578125 -1.046875 1.0625 -1.375q0.484375 -0.34375 1.078125 -0.34375q0.84375 0 1.71875 0.546875l-0.578125 1.546875q-0.609375 -0.359375 -1.234375 -0.359375q-0.546875 0 -0.984375 0.328125q-0.421875 0.328125 -0.609375 0.90625q-0.28125 0.890625 -0.28125 1.953125l0 5.15625l-1.671875 0zm6.212677 0l0 -9.859375l1.5 0l0 1.5q0.578125 -1.046875 1.0625 -1.375q0.484375 -0.34375 1.078125 -0.34375q0.84375 0 1.71875 0.546875l-0.578125 1.546875q-0.609375 -0.359375 -1.234375 -0.359375q-0.546875 0 -0.984375 0.328125q-0.421875 0.328125 -0.609375 0.90625q-0.28125 0.890625 -0.28125 1.953125l0 5.15625l-1.671875 0zm6.150177 3.796875l-0.171875 -1.5625q0.546875 0.140625 0.953125 0.140625q0.546875 0 0.875 -0.1875q0.34375 -0.1875 0.5625 -0.515625q0.15625 -0.25 0.5 -1.25q0.046875 -0.140625 0.15625 -0.40625l-3.734375 -9.875l1.796875 0l2.046875 5.71875q0.40625 1.078125 0.71875 2.28125q0.28125 -1.15625 0.6875 -2.25l2.09375 -5.75l1.671875 0l-3.75 10.03125q-0.59375 1.625 -0.9375 2.234375q-0.4375 0.828125 -1.015625 1.203125q-0.578125 0.390625 -1.375 0.390625q-0.484375 0 -1.078125 -0.203125zm14.808304 -3.796875l0 -13.59375l5.125 0q1.359375 0 2.078125 0.125q1.0 0.171875 1.671875 0.640625q0.671875 0.46875 1.078125 1.3125q0.421875 0.84375 0.421875 1.84375q0 1.734375 -1.109375 2.9375q-1.09375 1.203125 -3.984375 1.203125l-3.484375 0l0 5.53125l-1.796875 0zm1.796875 -7.140625l3.515625 0q1.75 0 2.46875 -0.640625q0.734375 -0.65625 0.734375 -1.828125q0 -0.859375 -0.4375 -1.46875q-0.421875 -0.609375 -1.125 -0.796875q-0.453125 -0.125 -1.671875 -0.125l-3.484375 0l0 4.859375zm10.443573 -4.546875l0 -1.90625l1.671875 0l0 1.90625l-1.671875 0zm0 11.6875l0 -9.859375l1.671875 0l0 9.859375l-1.671875 0z" fill-rule="nonzero"></path><path fill="#000000" fill-opacity="0.0" d="m115.82415 363.6483l42.456688 0l0 29.984253l-42.456688 0z" fill-rule="nonzero"></path><path fill="#000000" d="m130.83977 375.0133l1.046875 0l0 4.546875q0 1.1875 -0.28125 1.890625q-0.265625 0.703125 -0.96875 1.140625q-0.6875 0.4375 -1.828125 0.4375q-1.1093674 0 -1.8124924 -0.375q-0.703125 -0.390625 -1.015625 -1.109375q-0.296875 -0.734375 -0.296875 -1.984375l0 -4.546875l1.046875 0l0 4.546875q0 1.03125 0.1875 1.515625q0.1875 0.484375 0.65625 0.75q0.46874237 0.25 1.1406174 0.25q1.140625 0 1.625 -0.515625q0.5 -0.515625 0.5 -2.0l0 -4.546875zm2.1799774 5.34375l0.984375 -0.078125q0.0625 0.578125 0.3125 0.96875q0.265625 0.375 0.796875 0.609375q0.53125 0.234375 1.203125 0.234375q0.609375 0 1.0625 -0.171875q0.453125 -0.1875 0.671875 -0.484375q0.234375 -0.3125 0.234375 -0.6875q0 -0.375 -0.21875 -0.640625q-0.21875 -0.28125 -0.71875 -0.46875q-0.3125 -0.125 -1.40625 -0.375q-1.078125 -0.265625 -1.515625 -0.5q-0.5625 -0.296875 -0.84375 -0.734375q-0.265625 -0.4375 -0.265625 -0.984375q0 -0.59375 0.328125 -1.109375q0.34375 -0.515625 0.984375 -0.78125q0.65625 -0.28125 1.453125 -0.28125q0.875 0 1.546875 0.296875q0.671875 0.28125 1.03125 0.828125q0.359375 0.546875 0.390625 1.234375l-1.0 0.078125q-0.078125 -0.75 -0.546875 -1.125q-0.46875 -0.390625 -1.375 -0.390625q-0.9375 0 -1.375 0.359375q-0.4375 0.34375 -0.4375 0.828125q0 0.421875 0.3125 0.703125q0.296875 0.265625 1.5625 0.5625q1.28125 0.28125 1.75 0.5q0.6875 0.3125 1.015625 0.796875q0.328125 0.484375 0.328125 1.125q0 0.625 -0.359375 1.1875q-0.359375 0.546875 -1.046875 0.859375q-0.671875 0.3125 -1.515625 0.3125q-1.0625 0 -1.78125 -0.3125q-0.71875 -0.3125 -1.140625 -0.9375q-0.40625 -0.625 -0.421875 -1.421875zm7.4201355 2.53125l0 -7.875l2.953125 0q0.890625 0 1.4375 0.25q0.546875 0.234375 0.859375 0.734375q0.3125 0.484375 0.3125 1.03125q0 0.5 -0.28125 0.953125q-0.265625 0.4375 -0.828125 0.71875q0.71875 0.203125 1.09375 0.71875q0.390625 0.5 0.390625 1.1875q0 0.546875 -0.234375 1.03125q-0.234375 0.46875 -0.578125 0.734375q-0.34375 0.25 -0.859375 0.390625q-0.515625 0.125 -1.265625 0.125l-3.0 0zm1.03125 -4.5625l1.703125 0q0.703125 0 1.0 -0.09375q0.390625 -0.125 0.59375 -0.390625q0.203125 -0.28125 0.203125 -0.6875q0 -0.390625 -0.1875 -0.6875q-0.1875 -0.296875 -0.546875 -0.40625q-0.34375 -0.109375 -1.1875 -0.109375l-1.578125 0l0 2.375zm0 3.640625l1.96875 0q0.5 0 0.703125 -0.046875q0.359375 -0.0625 0.59375 -0.203125q0.25 -0.15625 0.40625 -0.4375q0.15625 -0.296875 0.15625 -0.671875q0 -0.4375 -0.234375 -0.765625q-0.21875 -0.328125 -0.625 -0.453125q-0.390625 -0.140625 -1.140625 -0.140625l-1.828125 0l0 2.71875z" fill-rule="nonzero"></path><path fill="#000000" fill-opacity="0.0" d="m96.17585 150.0l-41.469814 0l0 311.46982l61.763783 0l-0.88188934 52.94223" fill-rule="nonzero"></path><path stroke="#000000" stroke-width="1.0" stroke-linejoin="round" stroke-linecap="butt" d="m96.17585 150.0l-41.469814 0l0 311.46982l61.763783 0l-0.81876373 49.15277" fill-rule="evenodd"></path><path fill="#000000" stroke="#000000" stroke-width="1.0" stroke-linecap="butt" d="m115.59625 513.9122c-0.9083786 -0.015136719 -1.6325073 -0.76379395 -1.6173706 -1.6721802c0.015129089 -0.90838623 0.7637863 -1.6325073 1.6721649 -1.6174011c0.90838623 0.015136719 1.6325073 0.76379395 1.6173782 1.6721497c-0.015129089 0.90838623 -0.7637863 1.6325073 -1.6721725 1.6174316z" fill-rule="nonzero"></path><path fill="#000000" fill-opacity="0.0" d="m49.779526 242.01312l53.826775 0l0 29.984253l-53.826775 0z" fill-rule="nonzero"></path><path fill="#000000" d="m59.654526 261.2531l0 -7.8749847l1.046875 0l0 3.2343597l4.09375 0l0 -3.2343597l1.046875 0l0 7.8749847l-1.046875 0l0 -3.71875l-4.09375 0l0 3.71875l-1.046875 0zm7.6643524 0l0 -7.8749847l2.71875 0q0.921875 0 1.40625 0.109375q0.671875 0.15625 1.15625 0.5625q0.609375 0.53125 0.921875 1.359375q0.3125 0.81248474 0.3125 1.8593597q0 0.90625 -0.21875 1.59375q-0.203125 0.6875 -0.53125 1.140625q-0.328125 0.453125 -0.71875 0.71875q-0.390625 0.265625 -0.9375 0.40625q-0.546875 0.125 -1.265625 0.125l-2.84375 0zm1.046875 -0.921875l1.6875 0q0.765625 0 1.203125 -0.140625q0.453125 -0.15625 0.71875 -0.421875q0.375 -0.375 0.578125 -1.0q0.203125 -0.625 0.203125 -1.515625q0 -1.234375 -0.40625 -1.8906097q-0.40625 -0.671875 -0.984375 -0.890625q-0.421875 -0.15625 -1.34375 -0.15625l-1.65625 0l0 6.0156097zm6.6174774 0.921875l0 -7.8749847l1.578125 0l1.859375 5.5781097q0.25 0.78125 0.375 1.15625q0.140625 -0.421875 0.421875 -1.25l1.875 -5.4843597l1.40625 0l0 7.8749847l-1.0 0l0 -6.5937347l-2.296875 6.5937347l-0.9375 0l-2.265625 -6.7031097l0 6.7031097l-1.015625 0zm9.0954895 0l0 -7.8749847l1.03125 0l0 7.8749847l-1.03125 0z" fill-rule="nonzero"></path><path fill="#000000" d="m59.1389 271.39374q0 -1.578125 0.890625 -2.34375q0.734375 -0.625 1.796875 -0.625q1.171875 0 1.90625 0.765625q0.75 0.765625 0.75 2.125q0 1.109375 -0.328125 1.75q-0.328125 0.625 -0.96875 0.96875q-0.625 0.34375 -1.359375 0.34375q-1.203125 0 -1.953125 -0.765625q-0.734375 -0.765625 -0.734375 -2.21875zm1.0 0q0 1.109375 0.46875 1.65625q0.484375 0.53125 1.21875 0.53125q0.71875 0 1.1875 -0.546875q0.484375 -0.546875 0.484375 -1.671875q0 -1.046875 -0.484375 -1.59375q-0.484375 -0.546875 -1.1875 -0.546875q-0.734375 0 -1.21875 0.546875q-0.46875 0.53125 -0.46875 1.625zm5.2858734 2.859375l0 -5.703125l0.859375 0l0 0.859375q0.34375 -0.609375 0.625 -0.796875q0.28125 -0.1875 0.609375 -0.1875q0.5 0 1.0 0.3125l-0.328125 0.890625q-0.359375 -0.203125 -0.71875 -0.203125q-0.3125 0 -0.5625 0.1875q-0.25 0.1875 -0.359375 0.53125q-0.15625 0.515625 -0.15625 1.125l0 2.984375l-0.96875 0zm8.884262 0l-3.046875 -7.875l1.125 0l2.046875 5.71875q0.25 0.6875 0.421875 1.296875q0.171875 -0.65625 0.421875 -1.296875l2.125 -5.71875l1.0625 0l-3.078125 7.875l-1.078125 0zm8.5451355 -3.09375l0 -0.921875l3.34375 0l0 2.921875q-0.78125 0.609375 -1.59375 0.921875q-0.8125 0.3125 -1.671875 0.3125q-1.15625 0 -2.109375 -0.5q-0.953125 -0.5 -1.4375 -1.4375q-0.484375 -0.9375 -0.484375 -2.109375q0 -1.140625 0.484375 -2.140625q0.484375 -1.0 1.390625 -1.484375q0.90625 -0.484375 2.078125 -0.484375q0.84375 0 1.53125 0.28125q0.703125 0.28125 1.09375 0.78125q0.390625 0.484375 0.59375 1.28125l-0.9375 0.25q-0.171875 -0.59375 -0.4375 -0.9375q-0.265625 -0.34375 -0.765625 -0.546875q-0.484375 -0.203125 -1.078125 -0.203125q-0.71875 0 -1.234375 0.21875q-0.515625 0.203125 -0.84375 0.5625q-0.3125 0.359375 -0.5 0.78125q-0.296875 0.734375 -0.296875 1.578125q0 1.0625 0.359375 1.765625q0.375 0.703125 1.0625 1.046875q0.6875 0.34375 1.46875 0.34375q0.671875 0 1.3125 -0.25q0.65625 -0.265625 0.984375 -0.5625l0 -1.46875l-2.3125 0zm3.7418976 3.09375l3.03125 -7.875l1.109375 0l3.234375 7.875l-1.1875 0l-0.921875 -2.390625l-3.296875 0l-0.859375 2.390625l-1.109375 0zm2.265625 -3.234375l2.671875 0l-0.8125 -2.1875q-0.375 -0.984375 -0.5625 -1.625q-0.15625 0.75 -0.421875 1.5l-0.875 2.3125z" fill-rule="nonzero"></path><path fill="#000000" fill-opacity="0.0" d="m88.94226 521.4698l-92.47244 0" fill-rule="nonzero"></path><path stroke="#000000" stroke-width="1.0" stroke-linejoin="round" stroke-linecap="butt" d="m85.15226 521.4698l-88.68244 0" fill-rule="evenodd"></path><path stroke="#000000" stroke-width="1.0" stroke-linecap="butt" d="m88.44226 521.4698c0 0.9085083 -0.736496 1.6450195 -1.6450043 1.6450195c-0.9085083 0 -1.6449966 -0.73651123 -1.6449966 -1.6450195c0 -0.9085083 0.73648834 -1.6449585 1.6449966 -1.6449585c0.9085083 0 1.6450043 0.7364502 1.6450043 1.6449585z" fill-rule="nonzero"></path><path fill="#000000" fill-opacity="0.0" d="m12.879265 494.50656l53.826775 0l0 29.984283l-53.826775 0z" fill-rule="nonzero"></path><path fill="#000000" d="m22.723015 513.7466l0 -7.8750305l2.96875 0q0.796875 0 1.203125 0.078125q0.578125 0.09375 0.96875 0.375q0.390625 0.265625 0.625 0.75q0.25 0.484375 0.25 1.078125q0 1.0 -0.640625 1.703125q-0.640625 0.6875 -2.3125 0.6875l-2.015625 0l0 3.2031555l-1.046875 0zm1.046875 -4.1250305l2.03125 0q1.015625 0 1.4375 -0.375q0.421875 -0.375 0.421875 -1.0625q0 -0.5 -0.25 -0.84375q-0.25 -0.359375 -0.65625 -0.46875q-0.265625 -0.0625 -0.96875 -0.0625l-2.015625 0l0 2.8125zm5.5763855 1.265625q0 -1.578125 0.890625 -2.34375q0.734375 -0.625 1.796875 -0.625q1.171875 0 1.90625 0.765625q0.75 0.765625 0.75 2.125q0 1.109375 -0.328125 1.7500305q-0.328125 0.625 -0.96875 0.96875q-0.625 0.34375 -1.359375 0.34375q-1.203125 0 -1.953125 -0.765625q-0.734375 -0.765625 -0.734375 -2.2187805zm1.0 0q0 1.109375 0.46875 1.6562805q0.484375 0.53125 1.21875 0.53125q0.71875 0 1.1875 -0.546875q0.484375 -0.5469055 0.484375 -1.6719055q0 -1.046875 -0.484375 -1.59375q-0.484375 -0.546875 -1.1875 -0.546875q-0.734375 0 -1.21875 0.546875q-0.46875 0.53125 -0.46875 1.625zm6.3483734 2.8594055l-1.75 -5.7031555l1.0 0l0.90625 3.296875l0.34375 1.2187805q0.015625 -0.09375 0.296875 -1.1719055l0.90625 -3.34375l0.984375 0l0.859375 3.3125l0.28125 1.0781555l0.328125 -1.0937805l0.984375 -3.296875l0.9375 0l-1.78125 5.7031555l-1.0 0l-0.921875 -3.4219055l-0.21875 -0.96875l-1.15625 4.3906555l-1.0 0zm10.539352 -1.8437805l1.0 0.12503052q-0.234375 0.875 -0.875 1.359375q-0.640625 0.484375 -1.625 0.484375q-1.25 0 -1.984375 -0.765625q-0.734375 -0.765625 -0.734375 -2.1562805q0 -1.453125 0.734375 -2.234375q0.75 -0.796875 1.921875 -0.796875q1.15625 0 1.875 0.78125q0.71875 0.765625 0.71875 2.1875q0 0.078125 0 0.25l-4.25 0q0.046875 0.9375305 0.515625 1.4375305q0.484375 0.5 1.203125 0.5q0.53125 0 0.90625 -0.265625q0.375 -0.28125 0.59375 -0.9062805zm-3.171875 -1.5625l3.1875 0q-0.0625 -0.71875 -0.359375 -1.078125q-0.46875 -0.546875 -1.203125 -0.546875q-0.671875 0 -1.125 0.453125q-0.453125 0.4375 -0.5 1.171875zm5.1921234 3.4062805l0 -5.7031555l0.859375 0l0 0.859375q0.34375 -0.609375 0.625 -0.796875q0.28125 -0.1875 0.609375 -0.1875q0.5 0 1.0 0.3125l-0.328125 0.890625q-0.359375 -0.203125 -0.71875 -0.203125q-0.3125 0 -0.5625 0.1875q-0.25 0.1875 -0.359375 0.53125q-0.15625 0.515625 -0.15625 1.125l0 2.9844055l-0.96875 0z" fill-rule="nonzero"></path><path fill="#000000" fill-opacity="0.0" d="m167.6483 390.8819l-41.47245 0l0 123.53015" fill-rule="nonzero"></path><path stroke="#000000" stroke-width="1.0" stroke-linejoin="round" stroke-linecap="butt" d="m167.6483 390.8819l-41.47245 0l0 119.740204" fill-rule="evenodd"></path><path fill="#000000" stroke="#000000" stroke-width="1.0" stroke-linecap="butt" d="m126.17585 513.91205c-0.9085083 0 -1.6449966 -0.7364502 -1.6449966 -1.6449585c0 -0.9085388 0.73648834 -1.6450195 1.6449966 -1.6450195c0.9085083 0 1.6450043 0.7364807 1.6450043 1.6450195c0 0.9085083 -0.736496 1.6449585 -1.6450043 1.6449585z" fill-rule="nonzero"></path></g></svg>

